<?xml version="1.0" encoding="UTF-8"?><svg xmlns="http://www.w3.org/2000/svg" xmlns:xlink="http://www.w3.org/1999/xlink" viewBox="0 0 294 294"><defs><style>.x{fill:url(#u);}.y{fill:none;}.a`{fill:#182336;}.aa{clip-path:url(#t);}</style><clipPath id="t"><path class="y" d="M-286.25,63.04c-10.81,26.8-11.82,57.62-.5,86.67,5.48,14.06,13.38,26.47,23.02,36.94-1.54-11.04-1.53-22.49,.24-34.07,9.82-64.19,69.82-108.25,134.01-98.43,30.75,4.7,56.88,20.93,74.69,43.61C-74.47,47.55-123.35,12-180.53,12c-42.82,0-80.99,19.94-105.72,51.04"/></clipPath><linearGradient id="u" x1="-5410.67" y1="-1189.01" x2="-5407.66" y2="-1189.01" gradientTransform="translate(-411668.7 90552.21) rotate(-180) scale(76.07 -76.07)" gradientUnits="userSpaceOnUse"><stop offset="0" stop-color="#8f9192"/><stop offset=".24" stop-color="#888a8b"/><stop offset=".57" stop-color="#777a7a"/><stop offset=".94" stop-color="#5b5e5e"/><stop offset="1" stop-color="#565959"/></linearGradient></defs><g id="a"><g id="b"/><g id="c"><g id="d"/><g id="e"/></g><g id="f"><g id="g"/><g id="h"/></g><g id="i"><g id="j"/></g></g><g id="k"><g id="l"><g id="m"/><g id="n"/></g><g id="o"><g id="p"/><g id="q"/></g><g id="r"><g id="s"><g class="aa"><rect class="x" x="-320.6" y="-24.34" width="288.34" height="247.32" transform="translate(-44.61 -54.35) rotate(-20)"/></g></g><g id="v"><g id="w"><path class="a`" d="M152.52,56.82c4.2,1.32,8.18,2.87,12.15,4.64,30.27,13.25,53.47,37.53,65.4,68.22,11.93,30.69,11.27,64.24-1.99,94.27-9.72,21.86-25.41,40.4-45.07,53.43,57.67-15.9,98.99-68.66,98.99-130.03,0-17.22-3.31-34.22-9.5-50.11-18.34-22.96-44.63-37.97-73.58-42.39-15.47-2.43-31.37-1.77-46.4,1.99Z"/><path class="a`" d="M41.61,63c-11.05,27.6-11.27,58.28-.22,85.88,4.2,10.6,9.72,20.53,16.57,29.36-.44-8.61,0-17.22,1.33-25.83,10.38-67.11,73.36-113.48,140.74-103.32,24.3,3.75,46.62,14.35,64.52,30.69C240.68,38.05,196.49,12,147.22,12c-41.54,.22-79.98,18.77-105.61,51Z"/><path class="a`" d="M30.34,79.11c-12.15,20.53-18.34,43.71-18.34,68,0,74.4,60.54,134.89,135,134.89,5.74,0,11.71-.44,17.45-1.1,26.07-11.92,46.84-33.12,58.33-59.39,2.87-6.4,5.08-13.47,6.63-20.97-10.16,8.61-21.65,15.23-34.03,20.09-30.71,11.92-64.3,11.26-94.35-1.99-30.27-13.25-53.47-37.53-65.4-68.22-8.84-22.74-10.61-47.47-5.3-71.31Z"/></g></g></g></g></svg>