<?xml version="1.0" encoding="UTF-8"?><svg xmlns="http://www.w3.org/2000/svg" viewBox="0 0 294 294"><defs><style>.v{fill:#fff;}</style></defs><g id="a"><g id="b"/><g id="c"><g id="d"/><g id="e"/></g><g id="f"><g id="g"/><g id="h"/></g><g id="i"><g id="j"/></g></g><g id="k"><g id="l"><g id="m"/><g id="n"/></g><g id="o"><g id="p"/><g id="q"/></g><g id="r"><g id="s"><g id="t"><g id="u"><path class="v" d="M152.52,56.82c4.2,1.32,8.18,2.87,12.15,4.64,30.27,13.25,53.47,37.53,65.4,68.22,11.93,30.69,11.27,64.24-1.99,94.27-9.72,21.86-25.41,40.4-45.07,53.43,57.67-15.9,98.99-68.66,98.99-130.03,0-17.22-3.31-34.22-9.5-50.11-18.34-22.96-44.63-37.97-73.58-42.39-15.47-2.43-31.37-1.77-46.4,1.99Z"/><path class="v" d="M41.61,63c-11.05,27.6-11.27,58.28-.22,85.88,4.2,10.6,9.72,20.53,16.57,29.36-.44-8.61,0-17.22,1.33-25.83,10.38-67.11,73.36-113.48,140.74-103.32,24.3,3.75,46.62,14.35,64.52,30.69C240.68,38.05,196.49,12,147.22,12c-41.54,.22-79.98,18.77-105.61,51Z"/><path class="v" d="M30.34,79.11c-12.15,20.53-18.34,43.71-18.34,68,0,74.4,60.54,134.89,135,134.89,5.74,0,11.71-.44,17.45-1.1,26.07-11.92,46.84-33.12,58.33-59.39,2.87-6.4,5.08-13.47,6.63-20.97-10.16,8.61-21.65,15.23-34.03,20.09-30.71,11.92-64.3,11.26-94.35-1.99-30.27-13.25-53.47-37.53-65.4-68.22-8.84-22.74-10.61-47.47-5.3-71.31Z"/></g></g></g></g></g></svg>